<svg width="1920" height="11113" viewBox="0 0 1920 11113" fill="none" xmlns="http://www.w3.org/2000/svg">
<path d="M0 0H1925.68V11113H0L0 0Z" fill="url(#paint0_linear)"/>
<path d="M1727.21 2068.05V2068.68H1657.28C1642.51 2068.68 1629.9 2078.23 1627.75 2091.05L1619.15 2143.1H1688.37C1703.13 2143.1 1715.75 2133.54 1717.9 2120.72L1726.64 2067.92L1727.21 2068.05ZM1727.21 2068.05V2068.68V2068.05ZM1727.21 2068.05L1727.93 2068.17L1719.19 2120.97C1716.89 2134.42 1703.85 2144.36 1688.23 2144.36H1617.43L1626.32 2090.93C1628.61 2077.35 1641.8 2067.42 1657.28 2067.42H1728.07L1727.93 2068.17L1727.21 2068.05Z" stroke="white" stroke-opacity="0.6"/>
<path d="M1808.57 2067.78V2068.14H1768.91C1760.54 2068.14 1753.39 2073.6 1752.17 2080.92L1747.3 2110.66H1786.54C1794.91 2110.66 1802.06 2105.2 1803.28 2097.88L1808.24 2067.71L1808.57 2067.78ZM1808.57 2067.78V2068.14V2067.78ZM1808.57 2067.78L1808.97 2067.85L1804.01 2098.02C1802.71 2105.71 1795.32 2111.38 1786.46 2111.38H1746.32L1751.36 2080.85C1752.66 2073.09 1760.13 2067.42 1768.91 2067.42H1809.05L1808.97 2067.85L1808.57 2067.78Z" stroke="white" stroke-opacity="0.3"/>
<path d="M1760.29 4085.4V4086.03H1690.35C1675.59 4086.03 1662.98 4095.58 1660.83 4108.41L1652.23 4160.45H1721.45C1736.21 4160.45 1748.82 4150.9 1750.97 4138.07L1759.71 4085.27L1760.29 4085.4ZM1760.29 4085.4V4086.03V4085.4ZM1760.29 4085.4L1761 4085.53L1752.26 4138.33C1749.97 4151.78 1736.93 4161.71 1721.31 4161.71H1650.51L1659.4 4108.28C1661.69 4094.7 1674.87 4084.77 1690.35 4084.77H1761.15L1761 4085.53L1760.29 4085.4Z" stroke="white" stroke-opacity="0.6"/>
<path d="M1841.64 4085.13V4085.49H1801.99C1793.62 4085.49 1786.47 4090.95 1785.25 4098.28L1780.37 4128.02H1819.62C1827.99 4128.02 1835.14 4122.56 1836.36 4115.23L1841.32 4085.06L1841.64 4085.13ZM1841.64 4085.13V4085.49V4085.13ZM1841.64 4085.13L1842.05 4085.2L1837.09 4115.37C1835.79 4123.06 1828.4 4128.74 1819.54 4128.74H1779.4L1784.44 4098.21C1785.74 4090.45 1793.21 4084.77 1801.99 4084.77H1842.13L1842.05 4085.2L1841.64 4085.13Z" stroke="white" stroke-opacity="0.3"/>
<path d="M1779.68 5958.87V5959.5H1709.74C1694.98 5959.5 1682.37 5969.05 1680.22 5981.88L1671.62 6033.92H1740.84C1755.6 6033.92 1768.21 6024.37 1770.36 6011.55L1779.11 5958.75L1779.68 5958.87ZM1779.68 5958.87V5959.5V5958.87ZM1779.68 5958.87L1780.39 5959L1771.65 6011.8C1769.36 6025.25 1756.32 6035.18 1740.7 6035.18H1669.9L1678.79 5981.75C1681.08 5968.17 1694.26 5958.24 1709.74 5958.24H1780.54L1780.39 5959L1779.68 5958.87Z" stroke="white" stroke-opacity="0.6"/>
<path d="M1861.03 5958.6V5958.96H1821.38C1813.01 5958.96 1805.86 5964.42 1804.64 5971.75L1799.76 6001.49H1839.01C1847.38 6001.49 1854.53 5996.03 1855.75 5988.7L1860.71 5958.53L1861.03 5958.6ZM1861.03 5958.6V5958.96V5958.6ZM1861.03 5958.6L1861.44 5958.67L1856.48 5988.85C1855.18 5996.53 1847.79 6002.21 1838.93 6002.21H1798.79L1803.83 5971.68C1805.13 5963.92 1812.6 5958.24 1821.38 5958.24H1861.52L1861.44 5958.67L1861.03 5958.6Z" stroke="white" stroke-opacity="0.3"/>
<path d="M1897.16 9731.79V9732.42H1827.22C1812.46 9732.42 1799.85 9741.98 1797.7 9754.8L1789.1 9806.84H1858.32C1873.08 9806.84 1885.69 9797.29 1887.84 9784.47L1896.59 9731.67L1897.16 9731.79ZM1897.16 9731.79V9732.42V9731.79ZM1897.16 9731.79L1897.88 9731.92L1889.13 9784.72C1886.84 9798.17 1873.8 9808.1 1858.18 9808.1H1787.38L1796.27 9754.67C1798.56 9741.1 1811.74 9731.16 1827.22 9731.16H1898.02L1897.88 9731.92L1897.16 9731.79Z" stroke="white" stroke-opacity="0.6"/>
<path d="M1978.51 9731.52V9731.88H1938.86C1930.49 9731.88 1923.34 9737.34 1922.12 9744.67L1917.24 9774.41H1956.49C1964.86 9774.41 1972.01 9768.95 1973.23 9761.62L1978.19 9731.45L1978.51 9731.52ZM1978.51 9731.52V9731.88V9731.52ZM1978.51 9731.52L1978.92 9731.6L1973.96 9761.77C1972.66 9769.45 1965.27 9775.13 1956.41 9775.13H1916.27L1921.31 9744.6C1922.61 9736.84 1930.08 9731.16 1938.86 9731.16H1979L1978.92 9731.6L1978.51 9731.52Z" stroke="white" stroke-opacity="0.3"/>
<path d="M142.939 2486.7V2487.33H73.0026C58.2414 2487.33 45.63 2496.89 43.4803 2509.71L34.8816 2561.76H104.101C118.862 2561.76 131.474 2552.2 133.623 2539.38L142.366 2486.58L142.939 2486.7ZM142.939 2486.7V2487.33V2486.7ZM142.939 2486.7L143.655 2486.83L134.913 2539.63C132.62 2553.08 119.579 2563.01 103.958 2563.01H33.1619L42.0472 2509.59C44.3402 2496.01 57.5249 2486.08 73.0026 2486.08H143.799L143.655 2486.83L142.939 2486.7Z" stroke="white" stroke-opacity="0.5"/>
<path d="M224.293 2486.44V2486.79H184.638C176.268 2486.79 169.118 2492.25 167.899 2499.58L163.023 2529.32H202.271C210.641 2529.32 217.792 2523.86 219.011 2516.54L223.968 2486.36L224.293 2486.44ZM224.293 2486.44V2486.79V2486.44ZM224.293 2486.44L224.699 2486.51L219.742 2516.68C218.442 2524.37 211.047 2530.04 202.19 2530.04H162.048L167.086 2499.51C168.386 2491.75 175.862 2486.08 184.638 2486.08H224.78L224.699 2486.51L224.293 2486.44Z" stroke="white" stroke-opacity="0.2"/>
<path d="M206.812 4526.04V4526.67H136.875C122.114 4526.67 109.503 4536.22 107.353 4549.05L98.7545 4601.09H167.974C182.735 4601.09 195.347 4591.54 197.496 4578.71L206.238 4525.91L206.812 4526.04ZM206.812 4526.04V4526.67V4526.04ZM206.812 4526.04L207.528 4526.17L198.786 4578.97C196.493 4592.42 183.452 4602.35 167.831 4602.35H97.0348L105.92 4548.92C108.213 4535.34 121.398 4525.41 136.875 4525.41H207.672L207.528 4526.17L206.812 4526.04Z" stroke="white" stroke-opacity="0.5"/>
<path d="M288.165 4525.77V4526.13H248.511C240.141 4526.13 232.99 4531.59 231.772 4538.92L226.896 4568.66H266.144C274.514 4568.66 281.665 4563.2 282.884 4555.87L287.84 4525.7L288.165 4525.77ZM288.165 4525.77V4526.13V4525.77ZM288.165 4525.77L288.572 4525.84L283.615 4556.01C282.315 4563.7 274.92 4569.38 266.063 4569.38H225.921L230.959 4538.85C232.259 4531.09 239.735 4525.41 248.511 4525.41H288.653L288.572 4525.84L288.165 4525.77Z" stroke="white" stroke-opacity="0.2"/>
<path d="M109.862 6602.35V6602.98H39.9255C25.1644 6602.98 12.553 6612.53 10.4033 6625.35L1.80458 6677.4H71.0242C85.7853 6677.4 98.3968 6667.84 100.546 6655.02L109.288 6602.22L109.862 6602.35ZM109.862 6602.35V6602.98V6602.35ZM109.862 6602.35L110.578 6602.47L101.836 6655.27C99.5433 6668.72 86.5019 6678.66 70.8809 6678.66H0.0848389L8.97017 6625.23C11.2632 6611.65 24.4479 6601.72 39.9255 6601.72H110.722L110.578 6602.47L109.862 6602.35Z" stroke="white" stroke-opacity="0.5"/>
<path d="M191.216 6602.08V6602.44H151.561C143.191 6602.44 136.041 6607.9 134.822 6615.22L129.946 6644.96H169.194C177.564 6644.96 184.715 6639.5 185.934 6632.18L190.891 6602.01L191.216 6602.08ZM191.216 6602.08V6602.44V6602.08ZM191.216 6602.08L191.622 6602.15L186.665 6632.32C185.365 6640.01 177.97 6645.68 169.113 6645.68H128.971L134.009 6615.15C135.309 6607.39 142.785 6601.72 151.561 6601.72H191.703L191.622 6602.15L191.216 6602.08Z" stroke="white" stroke-opacity="0.2"/>
<path d="M109.862 10175.4V10176.1H39.9255C25.1644 10176.1 12.553 10185.6 10.4033 10198.4L1.80458 10250.5H71.0242C85.7853 10250.5 98.3968 10240.9 100.546 10228.1L109.288 10175.3L109.862 10175.4ZM109.862 10175.4V10176.1V10175.4ZM109.862 10175.4L110.578 10175.6L101.836 10228.4C99.5433 10241.8 86.5019 10251.7 70.8809 10251.7H0.0848389L8.97017 10198.3C11.2632 10184.7 24.4479 10174.8 39.9255 10174.8H110.722L110.578 10175.6L109.862 10175.4Z" stroke="white" stroke-opacity="0.5"/>
<path d="M191.216 10175.2V10175.5H151.561C143.191 10175.5 136.041 10181 134.822 10188.3L129.946 10218H169.194C177.564 10218 184.715 10212.6 185.934 10205.3L190.891 10175.1L191.216 10175.2ZM191.216 10175.2V10175.5V10175.2ZM191.216 10175.2L191.622 10175.2L186.665 10205.4C185.365 10213.1 177.97 10218.8 169.113 10218.8H128.971L134.009 10188.2C135.309 10180.5 142.785 10174.8 151.561 10174.8H191.703L191.622 10175.2L191.216 10175.2Z" stroke="white" stroke-opacity="0.2"/>
<path d="M293.496 3407.95V3408.58H223.56C208.799 3408.58 196.187 3418.14 194.038 3430.96L185.439 3483H254.659C269.42 3483 282.031 3473.45 284.181 3460.63L292.923 3407.83L293.496 3407.95ZM293.496 3407.95V3408.58V3407.95ZM293.496 3407.95L294.213 3408.08L285.471 3460.88C283.178 3474.33 270.136 3484.26 254.515 3484.26H183.719L192.605 3430.83C194.898 3417.26 208.082 3407.32 223.56 3407.32H294.356L294.213 3408.08L293.496 3407.95Z" stroke="white" stroke-opacity="0.5"/>
<path d="M374.85 3407.68V3408.04H335.195C326.826 3408.04 319.675 3413.5 318.456 3420.83L313.58 3450.57H352.829C361.198 3450.57 368.349 3445.11 369.568 3437.78L374.525 3407.61L374.85 3407.68ZM374.85 3407.68V3408.04V3407.68ZM374.85 3407.68L375.256 3407.76L370.299 3437.93C368.999 3445.61 361.605 3451.29 352.747 3451.29H312.605L317.643 3420.76C318.944 3413 326.419 3407.32 335.195 3407.32H375.338L375.256 3407.76L374.85 3407.68Z" stroke="white" stroke-opacity="0.2"/>
<path d="M238.748 5627.14V5627.77H168.812C154.051 5627.77 141.439 5637.32 139.29 5650.15L130.691 5702.19H199.911C214.672 5702.19 227.283 5692.64 229.433 5679.82L238.175 5627.02L238.748 5627.14ZM238.748 5627.14V5627.77V5627.14ZM238.748 5627.14L239.465 5627.27L230.723 5680.07C228.43 5693.52 215.388 5703.45 199.767 5703.45H128.971L137.856 5650.02C140.149 5636.44 153.334 5626.51 168.812 5626.51H239.608L239.465 5627.27L238.748 5627.14Z" stroke="white" stroke-opacity="0.5"/>
<path d="M320.102 5626.87V5627.23H280.447C272.078 5627.23 264.927 5632.69 263.708 5640.02L258.832 5669.76H298.081C306.45 5669.76 313.601 5664.3 314.82 5656.97L319.777 5626.8L320.102 5626.87ZM320.102 5626.87V5627.23V5626.87ZM320.102 5626.87L320.508 5626.94L315.551 5657.12C314.251 5664.8 306.857 5670.48 297.999 5670.48H257.857L262.895 5639.95C264.195 5632.19 271.671 5626.51 280.447 5626.51H320.589L320.508 5626.94L320.102 5626.87Z" stroke="white" stroke-opacity="0.2"/>
<path d="M253.576 7703.45V7704.08H183.639C168.878 7704.08 156.267 7713.63 154.117 7726.45L145.518 7778.5H214.738C229.499 7778.5 242.111 7768.95 244.26 7756.12L253.002 7703.32L253.576 7703.45ZM253.576 7703.45V7704.08V7703.45ZM253.576 7703.45L254.292 7703.57L245.55 7756.37C243.257 7769.83 230.216 7779.76 214.595 7779.76H143.799L152.684 7726.33C154.977 7712.75 168.162 7702.82 183.639 7702.82H254.435L254.292 7703.57L253.576 7703.45Z" stroke="white" stroke-opacity="0.5"/>
<path d="M334.929 7703.18V7703.54H295.275C286.905 7703.54 279.754 7709 278.535 7716.32L273.66 7746.06H312.908C321.278 7746.06 328.429 7740.61 329.648 7733.28L334.604 7703.11L334.929 7703.18ZM334.929 7703.18V7703.54V7703.18ZM334.929 7703.18L335.336 7703.25L330.379 7733.42C329.079 7741.11 321.684 7746.78 312.827 7746.78H272.685L277.723 7716.25C279.023 7708.49 286.499 7702.82 295.275 7702.82H335.417L335.336 7703.25L334.929 7703.18Z" stroke="white" stroke-opacity="0.2"/>
<path d="M238.748 9308.14V9308.77H168.812C154.051 9308.77 141.439 9318.32 139.29 9331.14L130.691 9383.19H199.911C214.672 9383.19 227.283 9373.64 229.433 9360.81L238.175 9308.01L238.748 9308.14ZM238.748 9308.14V9308.77V9308.14ZM238.748 9308.14L239.465 9308.26L230.723 9361.06C228.43 9374.52 215.388 9384.45 199.767 9384.45H128.971L137.856 9331.02C140.149 9317.44 153.334 9307.51 168.812 9307.51H239.608L239.465 9308.26L238.748 9308.14Z" stroke="white" stroke-opacity="0.5"/>
<path d="M320.102 9307.87V9308.23H280.447C272.078 9308.23 264.927 9313.69 263.708 9321.02L258.832 9350.76H298.081C306.45 9350.76 313.601 9345.3 314.82 9337.97L319.777 9307.8L320.102 9307.87ZM320.102 9307.87V9308.23V9307.87ZM320.102 9307.87L320.508 9307.94L315.551 9338.11C314.251 9345.8 306.857 9351.47 297.999 9351.47H257.857L262.895 9320.94C264.195 9313.19 271.671 9307.51 280.447 9307.51H320.589L320.508 9307.94L320.102 9307.87Z" stroke="white" stroke-opacity="0.2"/>
<path d="M1661.06 129.629V130.257H1591.12C1576.36 130.257 1563.75 139.811 1561.6 152.634L1553 204.68H1622.22C1636.98 204.68 1649.59 195.126 1651.74 182.303L1660.48 129.503L1661.06 129.629ZM1661.06 129.629V130.257V129.629ZM1661.06 129.629L1661.77 129.754L1653.03 182.554C1650.74 196.006 1637.7 205.937 1622.08 205.937H1551.28L1560.17 152.509C1562.46 138.931 1575.64 129 1591.12 129H1661.92L1661.77 129.754L1661.06 129.629Z" stroke="white" stroke-opacity="0.6"/>
<path d="M1742.41 129.359V129.718H1702.76C1694.39 129.718 1687.24 135.178 1686.02 142.505L1681.14 172.246H1720.39C1728.76 172.246 1735.91 166.786 1737.13 159.459L1742.09 129.287L1742.41 129.359ZM1742.41 129.359V129.718V129.359ZM1742.41 129.359L1742.82 129.431L1737.86 159.602C1736.56 167.289 1729.17 172.964 1720.31 172.964H1680.17L1685.2 142.433C1686.51 134.675 1693.98 129 1702.76 129H1742.9L1742.82 129.431L1742.41 129.359Z" stroke="white" stroke-opacity="0.3"/>
<path d="M109.862 596.248V596.876H39.9255C25.1644 596.876 12.553 606.431 10.4033 619.253L1.80458 671.299H71.0242C85.7853 671.299 98.3968 661.745 100.546 648.922L109.288 596.122L109.862 596.248ZM109.862 596.248V596.876V596.248ZM109.862 596.248L110.578 596.373L101.836 649.173C99.5433 662.625 86.5019 672.556 70.8809 672.556H0.0848389L8.97017 619.128C11.2632 605.551 24.4479 595.619 39.9255 595.619H110.722L110.578 596.373L109.862 596.248Z" stroke="white" stroke-opacity="0.5"/>
<path d="M191.216 595.978V596.338H151.561C143.191 596.338 136.041 601.797 134.822 609.124L129.946 638.865H169.194C177.564 638.865 184.715 633.405 185.934 626.078L190.891 595.906L191.216 595.978ZM191.216 595.978V596.338V595.978ZM191.216 595.978L191.622 596.05L186.665 626.222C185.365 633.908 177.97 639.583 169.113 639.583H128.971L134.009 609.053C135.309 601.294 142.785 595.619 151.561 595.619H191.703L191.622 596.05L191.216 595.978Z" stroke="white" stroke-opacity="0.2"/>
<path d="M293.496 1704.34V1704.97H223.56C208.799 1704.97 196.187 1714.53 194.038 1727.35L185.439 1779.39H254.659C269.42 1779.39 282.031 1769.84 284.181 1757.02L292.923 1704.22L293.496 1704.34ZM293.496 1704.34V1704.97V1704.34ZM293.496 1704.34L294.213 1704.47L285.471 1757.27C283.178 1770.72 270.136 1780.65 254.515 1780.65H183.719L192.605 1727.22C194.898 1713.65 208.082 1703.71 223.56 1703.71H294.356L294.213 1704.47L293.496 1704.34Z" stroke="white" stroke-opacity="0.5"/>
<path d="M374.85 1704.07V1704.43H335.195C326.826 1704.43 319.675 1709.89 318.456 1717.22L313.58 1746.96H352.829C361.198 1746.96 368.349 1741.5 369.568 1734.17L374.525 1704L374.85 1704.07ZM374.85 1704.07V1704.43V1704.07ZM374.85 1704.07L375.256 1704.15L370.299 1734.32C368.999 1742 361.605 1747.68 352.747 1747.68H312.605L317.643 1717.15C318.943 1709.39 326.419 1703.71 335.195 1703.71H375.337L375.256 1704.15L374.85 1704.07Z" stroke="white" stroke-opacity="0.2"/>
<path d="M1801.35 1117.82V1118.45H1731.41C1716.65 1118.45 1704.04 1128 1701.89 1140.83L1693.29 1192.87H1762.51C1777.27 1192.87 1789.88 1183.32 1792.03 1170.5L1800.78 1117.7L1801.35 1117.82ZM1801.35 1117.82V1118.45V1117.82ZM1801.35 1117.82L1802.07 1117.95L1793.32 1170.75C1791.03 1184.2 1777.99 1194.13 1762.37 1194.13H1691.57L1700.46 1140.7C1702.75 1127.12 1715.94 1117.19 1731.41 1117.19H1802.21L1802.07 1117.95L1801.35 1117.82Z" stroke="white" stroke-opacity="0.6"/>
<path d="M1882.7 1117.55V1117.91H1843.05C1834.68 1117.91 1827.53 1123.37 1826.31 1130.7L1821.43 1160.44H1860.68C1869.05 1160.44 1876.2 1154.98 1877.42 1147.65L1882.38 1117.48L1882.7 1117.55ZM1882.7 1117.55V1117.91V1117.55ZM1882.7 1117.55L1883.11 1117.62L1878.15 1147.8C1876.85 1155.48 1869.46 1161.16 1860.6 1161.16H1820.46L1825.5 1130.63C1826.8 1122.87 1834.27 1117.19 1843.05 1117.19H1883.19L1883.11 1117.62L1882.7 1117.55Z" stroke="white" stroke-opacity="0.3"/>
<path d="M1856.1 2890.38V2891H1786.16C1771.4 2891 1758.79 2900.56 1756.64 2913.38L1748.04 2965.43H1817.26C1832.02 2965.43 1844.63 2955.87 1846.78 2943.05L1855.52 2890.25L1856.1 2890.38ZM1856.1 2890.38V2891V2890.38ZM1856.1 2890.38L1856.81 2890.5L1848.07 2943.3C1845.78 2956.75 1832.74 2966.68 1817.12 2966.68H1746.32L1755.21 2913.26C1757.5 2899.68 1770.68 2889.75 1786.16 2889.75H1856.96L1856.81 2890.5L1856.1 2890.38Z" stroke="white" stroke-opacity="0.6"/>
<path d="M1937.45 2890.11V2890.47H1897.8C1889.43 2890.47 1882.28 2895.93 1881.06 2903.25L1876.18 2932.99H1915.43C1923.8 2932.99 1930.95 2927.53 1932.17 2920.21L1937.13 2890.03L1937.45 2890.11ZM1937.45 2890.11V2890.47V2890.11ZM1937.45 2890.11L1937.86 2890.18L1932.9 2920.35C1931.6 2928.04 1924.21 2933.71 1915.35 2933.71H1875.21L1880.24 2903.18C1881.55 2895.42 1889.02 2889.75 1897.8 2889.75H1937.94L1937.86 2890.18L1937.45 2890.11Z" stroke="white" stroke-opacity="0.3"/>
<path d="M1889.17 4885.75V4886.38H1819.24C1804.48 4886.38 1791.87 4895.93 1789.72 4908.75L1781.12 4960.8H1850.34C1865.1 4960.8 1877.71 4951.24 1879.86 4938.42L1888.6 4885.62L1889.17 4885.75ZM1889.17 4885.75V4886.38V4885.75ZM1889.17 4885.75L1889.89 4885.87L1881.15 4938.67C1878.86 4952.12 1865.81 4962.06 1850.19 4962.06H1779.4L1788.28 4908.63C1790.58 4895.05 1803.76 4885.12 1819.24 4885.12H1890.03L1889.89 4885.87L1889.17 4885.75Z" stroke="white" stroke-opacity="0.6"/>
<path d="M1970.53 4885.48V4885.84H1930.87C1922.5 4885.84 1915.35 4891.3 1914.13 4898.62L1909.26 4928.36H1948.51C1956.88 4928.36 1964.03 4922.9 1965.25 4915.58L1970.2 4885.41L1970.53 4885.48ZM1970.53 4885.48V4885.84V4885.48ZM1970.53 4885.48L1970.93 4885.55L1965.98 4915.72C1964.68 4923.41 1957.28 4929.08 1948.43 4929.08H1908.28L1913.32 4898.55C1914.62 4890.79 1922.1 4885.12 1930.87 4885.12H1971.02L1970.93 4885.55L1970.53 4885.48Z" stroke="white" stroke-opacity="0.3"/>
<path d="M1785.38 7001.02V7001.65H1715.44C1700.68 7001.65 1688.07 7011.2 1685.92 7024.03L1677.32 7076.07H1746.54C1761.3 7076.07 1773.92 7066.52 1776.07 7053.7L1784.81 7000.9L1785.38 7001.02ZM1785.38 7001.02V7001.65V7001.02ZM1785.38 7001.02L1786.1 7001.15L1777.36 7053.95C1775.06 7067.4 1762.02 7077.33 1746.4 7077.33H1675.6L1684.49 7023.9C1686.78 7010.32 1699.97 7000.39 1715.44 7000.39H1786.24L1786.1 7001.15L1785.38 7001.02Z" stroke="white" stroke-opacity="0.6"/>
<path d="M1866.74 7000.75V7001.11H1827.08C1818.71 7001.11 1811.56 7006.57 1810.34 7013.9L1805.47 7043.64H1844.71C1853.08 7043.64 1860.23 7038.18 1861.45 7030.85L1866.41 7000.68L1866.74 7000.75ZM1866.74 7000.75V7001.11V7000.75ZM1866.74 7000.75L1867.14 7000.82L1862.18 7031C1860.88 7038.68 1853.49 7044.36 1844.63 7044.36H1804.49L1809.53 7013.83C1810.83 7006.07 1818.3 7000.39 1827.08 7000.39H1867.22L1867.14 7000.82L1866.74 7000.75Z" stroke="white" stroke-opacity="0.3"/>
<path d="M1705.54 8344.92V8345.55H1635.6C1620.84 8345.55 1608.23 8355.11 1606.08 8367.93L1597.48 8419.98H1666.7C1681.46 8419.98 1694.08 8410.42 1696.22 8397.6L1704.97 8344.8L1705.54 8344.92ZM1705.54 8344.92V8345.55V8344.92ZM1705.54 8344.92L1706.26 8345.05L1697.51 8397.85C1695.22 8411.3 1682.18 8421.23 1666.56 8421.23H1595.76L1604.65 8367.8C1606.94 8354.23 1620.13 8344.3 1635.6 8344.3H1706.4L1706.26 8345.05L1705.54 8344.92Z" stroke="white" stroke-opacity="0.6"/>
<path d="M1786.89 8344.66V8345.01H1747.24C1738.87 8345.01 1731.72 8350.47 1730.5 8357.8L1725.62 8387.54H1764.87C1773.24 8387.54 1780.39 8382.08 1781.61 8374.75L1786.57 8344.58L1786.89 8344.66ZM1786.89 8344.66V8345.01V8344.66ZM1786.89 8344.66L1787.3 8344.73L1782.34 8374.9C1781.04 8382.58 1773.65 8388.26 1764.79 8388.26H1724.65L1729.69 8357.73C1730.99 8349.97 1738.46 8344.3 1747.24 8344.3H1787.38L1787.3 8344.73L1786.89 8344.66Z" stroke="white" stroke-opacity="0.3"/>
<path d="M1881.19 10570.6V10571.2H1811.25C1796.49 10571.2 1783.88 10580.8 1781.73 10593.6L1773.13 10645.7H1842.35C1857.11 10645.7 1869.73 10636.1 1871.88 10623.3L1880.62 10570.5L1881.19 10570.6ZM1881.19 10570.6V10571.2V10570.6ZM1881.19 10570.6L1881.91 10570.7L1873.16 10623.5C1870.87 10637 1857.83 10646.9 1842.21 10646.9H1771.41L1780.3 10593.5C1782.59 10579.9 1795.78 10570 1811.25 10570H1882.05L1881.91 10570.7L1881.19 10570.6Z" stroke="white" stroke-opacity="0.6"/>
<path d="M1962.54 10570.3V10570.7H1922.89C1914.52 10570.7 1907.37 10576.2 1906.15 10583.5L1901.27 10613.2H1940.52C1948.89 10613.2 1956.04 10607.8 1957.26 10600.4L1962.22 10570.3L1962.54 10570.3ZM1962.54 10570.3V10570.7V10570.3ZM1962.54 10570.3L1962.95 10570.4L1957.99 10600.6C1956.69 10608.3 1949.3 10613.9 1940.44 10613.9H1900.3L1905.34 10583.4C1906.64 10575.7 1914.11 10570 1922.89 10570H1963.03L1962.95 10570.4L1962.54 10570.3Z" stroke="white" stroke-opacity="0.3"/>
<defs>
<linearGradient id="paint0_linear" x1="235.361" y1="1304.01" x2="2525.41" y2="1912.3" gradientUnits="userSpaceOnUse">
<stop offset="0.00520833" stop-color="#505152"/>
<stop offset="0.255208" stop-color="#919191"/>
<stop offset="0.515625" stop-color="#5A5A5A"/>
<stop offset="0.817708" stop-color="#888888"/>
<stop offset="1" stop-color="#5A5A5A"/>
</linearGradient>
</defs>
</svg>
