<svg width="141" height="127" viewBox="0 0 141 127" fill="none" xmlns="http://www.w3.org/2000/svg">
<g filter="url(#filter0_d)">
<path d="M57.9018 16C40.6427 16 26.0601 28.9213 23.9373 46.0881L16 110.971H83.0982C100.357 110.971 114.94 98.05 117.063 80.8832L125 16H57.9018Z" fill="white"/>
</g>
<path d="M59.6041 58.8896L68.4922 74.2843L59.6041 89.679L41.8278 89.679L32.9396 74.2843L41.8278 58.8895L59.6041 58.8896Z" fill="white" stroke="#C61821" stroke-width="1.62747"/>
<path d="M79.0131 47.7987L87.9013 63.1935L79.0131 78.5882L61.2369 78.5882L52.3487 63.1934L61.2369 47.7987L79.0131 47.7987Z" fill="white" stroke="#C61821" stroke-width="1.62747"/>
<circle cx="62.5" cy="57.5" r="1.5" fill="#C61821"/>
<circle cx="44.5" cy="74.5" r="1.5" fill="#C61821"/>
<circle cx="41.5" cy="68.5" r="1.5" fill="#C61821"/>
<circle cx="60.5" cy="61.5" r="1.5" fill="#C61821"/>
<circle cx="41.5" cy="79.5" r="1.5" fill="#C61821"/>
<circle cx="60.5" cy="68.5" r="1.5" fill="#C61821"/>
<circle cx="43.5" cy="84.5" r="1.5" fill="#C61821"/>
<circle cx="68.5" cy="70.5" r="1.5" fill="#C61821"/>
<circle cx="49.5" cy="85.5" r="1.5" fill="#C61821"/>
<circle cx="65.5" cy="64.5" r="1.5" fill="#C61821"/>
<circle cx="47.5" cy="79.5" r="1.5" fill="#C61821"/>
<circle cx="38.5" cy="74.5" r="1.5" fill="#C61821"/>
<circle cx="53.5" cy="79.5" r="1.5" fill="#C61821"/>
<circle cx="50.5" cy="73.5" r="1.5" fill="#C61821"/>
<circle cx="47.5" cy="66.5" r="1.5" fill="#C61821"/>
<path d="M98.4222 35.3212L107.31 50.7159L98.4222 66.1106L80.6459 66.1106L71.7578 50.7159L80.6459 35.3212L98.4222 35.3212Z" fill="white" stroke="#C61821" stroke-width="1.62747"/>
<defs>
<filter id="filter0_d" x="0.15936" y="0.15936" width="140.681" height="126.653" filterUnits="userSpaceOnUse" color-interpolation-filters="sRGB">
<feFlood flood-opacity="0" result="BackgroundImageFix"/>
<feColorMatrix in="SourceAlpha" type="matrix" values="0 0 0 0 0 0 0 0 0 0 0 0 0 0 0 0 0 0 127 0"/>
<feOffset/>
<feGaussianBlur stdDeviation="7.92032"/>
<feColorMatrix type="matrix" values="0 0 0 0 0 0 0 0 0 0 0 0 0 0 0 0 0 0 0.29 0"/>
<feBlend mode="normal" in2="BackgroundImageFix" result="effect1_dropShadow"/>
<feBlend mode="normal" in="SourceGraphic" in2="effect1_dropShadow" result="shape"/>
</filter>
</defs>
</svg>
