<svg width="141" height="127" viewBox="0 0 141 127" fill="none" xmlns="http://www.w3.org/2000/svg">
<g filter="url(#filter0_d)">
<path d="M57.9018 16C40.6427 16 26.0601 28.9213 23.9373 46.0881L16 110.971H83.0982C100.357 110.971 114.94 98.05 117.063 80.8832L125 16H57.9018Z" fill="white"/>
</g>
<path d="M93.3452 79.8213L89.9104 74.2063C89.6288 73.7457 89.0271 73.6007 88.5663 73.8825C88.1058 74.1643 87.9607 74.766 88.2427 75.2267L91.6774 80.8417C93.431 83.7084 93.497 87.1701 91.8539 90.1015C90.2106 93.0327 87.2233 94.7829 83.8627 94.7829H56.1373C52.7767 94.7829 49.7894 93.0327 48.1462 90.1013C46.503 87.1699 46.5689 83.7083 48.3226 80.8416L56.3468 67.724H83.6534L85.9441 71.4688C86.1284 71.7702 86.4497 71.9363 86.7788 71.9363C86.9527 71.9363 87.129 71.8899 87.2881 71.7925C87.7486 71.5107 87.8937 70.909 87.6118 70.4484L78.9734 56.3266V36.1557C80.5971 36.0717 81.8925 34.7243 81.8925 33.08C81.8925 31.3817 80.5108 30 78.8126 30H61.1872C59.4891 30 58.1074 31.3817 58.1074 33.0799C58.1074 34.7242 59.4028 36.0717 61.0265 36.1555V44.4806C61.0265 45.0205 61.4642 45.4582 62.0041 45.4582C62.544 45.4582 62.9817 45.0205 62.9817 44.4806V36.1599H65.0996C65.6395 36.1599 66.0772 35.7221 66.0772 35.1822C66.0772 34.6423 65.6395 34.2046 65.0996 34.2046H61.1872C60.5672 34.2046 60.0626 33.7001 60.0626 33.08C60.0626 32.4599 60.5672 31.9552 61.1872 31.9552H78.8125C79.4327 31.9552 79.9371 32.4598 79.9371 33.0799C79.9371 33.6999 79.4327 34.2045 78.8125 34.2045H69.5085C68.9686 34.2045 68.5309 34.6422 68.5309 35.1821C68.5309 35.722 68.9686 36.1597 69.5085 36.1597H77.018V56.6021C77.018 56.7821 77.0678 56.9586 77.1618 57.1122L82.4572 65.7688H57.5427L62.8381 57.1122C62.9321 56.9587 62.9817 56.7822 62.9817 56.6021V48.8895C62.9817 48.3496 62.544 47.9119 62.0041 47.9119C61.4642 47.9119 61.0265 48.3496 61.0265 48.8895V56.3268L46.6546 79.8213C44.5267 83.2999 44.4468 87.5004 46.4406 91.0574C48.4344 94.6145 52.0594 96.7381 56.1373 96.7381H83.8627C87.9405 96.7381 91.5655 94.6145 93.5594 91.0573C95.5533 87.5001 95.4732 83.2998 93.3452 79.8213Z" fill="#C61821"/>
<path d="M66.7366 54.6535H72.4255C72.9655 54.6535 73.4031 54.2158 73.4031 53.6759C73.4031 53.136 72.9655 52.6982 72.4255 52.6982H66.7366C66.1966 52.6982 65.7589 53.136 65.7589 53.6759C65.7589 54.2158 66.1966 54.6535 66.7366 54.6535Z" fill="#C61821"/>
<path d="M66.7366 59.0099H70.2572C70.7973 59.0099 71.2349 58.5722 71.2349 58.0323C71.2349 57.4924 70.7973 57.0547 70.2572 57.0547H66.7366C66.1966 57.0547 65.7589 57.4924 65.7589 58.0323C65.7589 58.5722 66.1966 59.0099 66.7366 59.0099Z" fill="#C61821"/>
<path d="M66.7366 63.3673H70.2572C70.7973 63.3673 71.2349 62.9296 71.2349 62.3897C71.2349 61.8498 70.7973 61.4121 70.2572 61.4121H66.7366C66.1966 61.4121 65.7589 61.8498 65.7589 62.3897C65.7589 62.9296 66.1966 63.3673 66.7366 63.3673Z" fill="#C61821"/>
<path d="M72.4255 70.126H66.7366C66.1966 70.126 65.7589 70.5637 65.7589 71.1036C65.7589 71.6435 66.1966 72.0812 66.7366 72.0812H72.4255C72.9655 72.0812 73.4031 71.6435 73.4031 71.1036C73.4031 70.5637 72.9654 70.126 72.4255 70.126Z" fill="#C61821"/>
<path d="M66.7366 89.5089H72.4255C72.9655 89.5089 73.4031 89.0712 73.4031 88.5313C73.4031 87.9914 72.9655 87.5537 72.4255 87.5537H66.7366C66.1966 87.5537 65.7589 87.9914 65.7589 88.5313C65.7589 89.0712 66.1966 89.5089 66.7366 89.5089Z" fill="#C61821"/>
<path d="M66.7366 76.4376H70.2572C70.7973 76.4376 71.2349 75.9999 71.2349 75.46C71.2349 74.9201 70.7973 74.4824 70.2572 74.4824H66.7366C66.1966 74.4824 65.7589 74.9201 65.7589 75.46C65.7589 75.9999 66.1966 76.4376 66.7366 76.4376Z" fill="#C61821"/>
<path d="M66.7366 80.7951H70.2572C70.7973 80.7951 71.2349 80.3574 71.2349 79.8175C71.2349 79.2776 70.7973 78.8398 70.2572 78.8398H66.7366C66.1966 78.8398 65.7589 79.2776 65.7589 79.8175C65.7589 80.3574 66.1966 80.7951 66.7366 80.7951Z" fill="#C61821"/>
<path d="M66.7366 85.1515H70.2572C70.7973 85.1515 71.2349 84.7138 71.2349 84.1739C71.2349 83.634 70.7973 83.1963 70.2572 83.1963H66.7366C66.1966 83.1963 65.7589 83.634 65.7589 84.1739C65.7589 84.7138 66.1966 85.1515 66.7366 85.1515Z" fill="#C61821"/>
<defs>
<filter id="filter0_d" x="0.15936" y="0.15936" width="140.681" height="126.653" filterUnits="userSpaceOnUse" color-interpolation-filters="sRGB">
<feFlood flood-opacity="0" result="BackgroundImageFix"/>
<feColorMatrix in="SourceAlpha" type="matrix" values="0 0 0 0 0 0 0 0 0 0 0 0 0 0 0 0 0 0 127 0"/>
<feOffset/>
<feGaussianBlur stdDeviation="7.92032"/>
<feColorMatrix type="matrix" values="0 0 0 0 0 0 0 0 0 0 0 0 0 0 0 0 0 0 0.29 0"/>
<feBlend mode="normal" in2="BackgroundImageFix" result="effect1_dropShadow"/>
<feBlend mode="normal" in="SourceGraphic" in2="effect1_dropShadow" result="shape"/>
</filter>
</defs>
</svg>
