<svg width="331" height="9666" viewBox="0 0 331 9666" fill="none" xmlns="http://www.w3.org/2000/svg">
<path d="M97.2461 1.62908V2.25817H35.9301C22.9883 2.25817 11.9313 11.8203 10.0466 24.6536L2.50777 76.7418H63.1956C76.1373 76.7418 87.1943 67.1797 89.079 54.3464L96.7435 1.50327L97.2461 1.62908ZM97.2461 1.62908V2.25817V1.62908ZM97.2461 1.62908L97.8744 1.7549L90.2098 54.598C88.1995 68.0605 76.7656 78 63.07 78H1L8.79016 24.5278C10.8005 10.9395 22.3601 1 35.9301 1H98L97.8744 1.7549L97.2461 1.62908Z" stroke="white" stroke-opacity="0.5"/>
<path d="M168.573 1.35948V1.71895H133.806C126.468 1.71895 120.198 7.18301 119.13 14.5163L114.855 44.281H149.266C156.604 44.281 162.873 38.817 163.942 31.4837L168.288 1.28758L168.573 1.35948ZM168.573 1.35948V1.71895V1.35948ZM168.573 1.35948L168.929 1.43137L164.583 31.6275C163.443 39.3203 156.96 45 149.194 45H114L118.417 14.4444C119.557 6.67974 126.111 1 133.806 1H169L168.929 1.43137L168.573 1.35948Z" stroke="white" stroke-opacity="0.2"/>
<path d="M126.246 1893.63V1894.26H64.9301C51.9883 1894.26 40.9313 1903.82 39.0466 1916.65L31.5078 1968.74H92.1956C105.137 1968.74 116.194 1959.18 118.079 1946.35L125.744 1893.5L126.246 1893.63ZM126.246 1893.63V1894.26V1893.63ZM126.246 1893.63L126.874 1893.75L119.21 1946.6C117.199 1960.06 105.766 1970 92.07 1970H30L37.7902 1916.53C39.8005 1902.94 51.3601 1893 64.9301 1893H127L126.874 1893.75L126.246 1893.63Z" stroke="white" stroke-opacity="0.5"/>
<path d="M197.573 1893.36V1893.72H162.806C155.468 1893.72 149.198 1899.18 148.13 1906.52L143.855 1936.28H178.266C185.604 1936.28 191.873 1930.82 192.942 1923.48L197.288 1893.29L197.573 1893.36ZM197.573 1893.36V1893.72V1893.36ZM197.573 1893.36L197.929 1893.43L193.583 1923.63C192.443 1931.32 185.96 1937 178.194 1937H143L147.417 1906.44C148.557 1898.68 155.111 1893 162.806 1893H198L197.929 1893.43L197.573 1893.36Z" stroke="white" stroke-opacity="0.2"/>
<path d="M182.246 3934.63V3935.26H120.93C107.988 3935.26 96.9313 3944.82 95.0466 3957.65L87.5078 4009.74H148.196C161.137 4009.74 172.194 4000.18 174.079 3987.35L181.744 3934.5L182.246 3934.63ZM182.246 3934.63V3935.26V3934.63ZM182.246 3934.63L182.874 3934.75L175.21 3987.6C173.199 4001.06 161.766 4011 148.07 4011H86L93.7902 3957.53C95.8005 3943.94 107.36 3934 120.93 3934H183L182.874 3934.75L182.246 3934.63Z" stroke="white" stroke-opacity="0.5"/>
<path d="M253.573 3934.36V3934.72H218.806C211.468 3934.72 205.198 3940.18 204.13 3947.52L199.855 3977.28H234.266C241.604 3977.28 247.873 3971.82 248.942 3964.48L253.288 3934.29L253.573 3934.36ZM253.573 3934.36V3934.72V3934.36ZM253.573 3934.36L253.929 3934.43L249.583 3964.63C248.443 3972.32 241.96 3978 234.194 3978H199L203.417 3947.44C204.557 3939.68 211.111 3934 218.806 3934H254L253.929 3934.43L253.573 3934.36Z" stroke="white" stroke-opacity="0.2"/>
<path d="M97.2461 6012.63V6013.26H35.9301C22.9883 6013.26 11.9313 6022.82 10.0466 6035.65L2.50777 6087.74H63.1956C76.1373 6087.74 87.1943 6078.18 89.079 6065.35L96.7435 6012.5L97.2461 6012.63ZM97.2461 6012.63V6013.26V6012.63ZM97.2461 6012.63L97.8744 6012.75L90.2098 6065.6C88.1995 6079.06 76.7656 6089 63.07 6089H1L8.79016 6035.53C10.8005 6021.94 22.3601 6012 35.9301 6012H98L97.8744 6012.75L97.2461 6012.63Z" stroke="white" stroke-opacity="0.5"/>
<path d="M168.573 6012.36V6012.72H133.806C126.468 6012.72 120.198 6018.18 119.13 6025.52L114.855 6055.28H149.266C156.604 6055.28 162.873 6049.82 163.942 6042.48L168.288 6012.29L168.573 6012.36ZM168.573 6012.36V6012.72V6012.36ZM168.573 6012.36L168.929 6012.43L164.583 6042.63C163.443 6050.32 156.96 6056 149.194 6056H114L118.417 6025.44C119.557 6017.68 126.111 6012 133.806 6012H169L168.929 6012.43L168.573 6012.36Z" stroke="white" stroke-opacity="0.2"/>
<path d="M97.2461 9588.63V9589.26H35.9301C22.9883 9589.26 11.9313 9598.82 10.0466 9611.65L2.50777 9663.74H63.1956C76.1373 9663.74 87.1943 9654.18 89.079 9641.35L96.7435 9588.5L97.2461 9588.63ZM97.2461 9588.63V9589.26V9588.63ZM97.2461 9588.63L97.8744 9588.75L90.2098 9641.6C88.1995 9655.06 76.7656 9665 63.07 9665H1L8.79016 9611.53C10.8005 9597.94 22.3601 9588 35.9301 9588H98L97.8744 9588.75L97.2461 9588.63Z" stroke="white" stroke-opacity="0.5"/>
<path d="M168.573 9588.36V9588.72H133.806C126.468 9588.72 120.198 9594.18 119.13 9601.52L114.855 9631.28H149.266C156.604 9631.28 162.873 9625.82 163.942 9618.48L168.288 9588.29L168.573 9588.36ZM168.573 9588.36V9588.72V9588.36ZM168.573 9588.36L168.929 9588.43L164.583 9618.63C163.443 9626.32 156.96 9632 149.194 9632H114L118.417 9601.44C119.557 9593.68 126.111 9588 133.806 9588H169L168.929 9588.43L168.573 9588.36Z" stroke="white" stroke-opacity="0.2"/>
<path d="M258.246 1110.63V1111.26H196.93C183.988 1111.26 172.931 1120.82 171.047 1133.65L163.508 1185.74H224.196C237.137 1185.74 248.194 1176.18 250.079 1163.35L257.744 1110.5L258.246 1110.63ZM258.246 1110.63V1111.26V1110.63ZM258.246 1110.63L258.874 1110.75L251.21 1163.6C249.199 1177.06 237.766 1187 224.07 1187H162L169.79 1133.53C171.801 1119.94 183.36 1110 196.93 1110H259L258.874 1110.75L258.246 1110.63Z" stroke="white" stroke-opacity="0.5"/>
<path d="M329.573 1110.36V1110.72H294.806C287.468 1110.72 281.198 1116.18 280.13 1123.52L275.855 1153.28H310.266C317.604 1153.28 323.873 1147.82 324.942 1140.48L329.288 1110.29L329.573 1110.36ZM329.573 1110.36V1110.72V1110.36ZM329.573 1110.36L329.929 1110.43L325.583 1140.63C324.443 1148.32 317.96 1154 310.194 1154H275L279.417 1123.44C280.557 1115.68 287.111 1110 294.806 1110H330L329.929 1110.43L329.573 1110.36Z" stroke="white" stroke-opacity="0.2"/>
<path d="M258.246 2815.63V2816.26H196.93C183.988 2816.26 172.931 2825.82 171.047 2838.65L163.508 2890.74H224.196C237.137 2890.74 248.194 2881.18 250.079 2868.35L257.744 2815.5L258.246 2815.63ZM258.246 2815.63V2816.26V2815.63ZM258.246 2815.63L258.874 2815.75L251.21 2868.6C249.199 2882.06 237.766 2892 224.07 2892H162L169.79 2838.53C171.801 2824.94 183.36 2815 196.93 2815H259L258.874 2815.75L258.246 2815.63Z" stroke="white" stroke-opacity="0.5"/>
<path d="M329.573 2815.36V2815.72H294.806C287.468 2815.72 281.198 2821.18 280.13 2828.52L275.855 2858.28H310.266C317.604 2858.28 323.873 2852.82 324.942 2845.48L329.288 2815.29L329.573 2815.36ZM329.573 2815.36V2815.72V2815.36ZM329.573 2815.36L329.929 2815.43L325.583 2845.63C324.443 2853.32 317.96 2859 310.194 2859H275L279.417 2828.44C280.557 2820.68 287.111 2815 294.806 2815H330L329.929 2815.43L329.573 2815.36Z" stroke="white" stroke-opacity="0.2"/>
<path d="M210.246 5036.63V5037.26H148.93C135.988 5037.26 124.931 5046.82 123.047 5059.65L115.508 5111.74H176.196C189.137 5111.74 200.194 5102.18 202.079 5089.35L209.744 5036.5L210.246 5036.63ZM210.246 5036.63V5037.26V5036.63ZM210.246 5036.63L210.874 5036.75L203.21 5089.6C201.199 5103.06 189.766 5113 176.07 5113H114L121.79 5059.53C123.801 5045.94 135.36 5036 148.93 5036H211L210.874 5036.75L210.246 5036.63Z" stroke="white" stroke-opacity="0.5"/>
<path d="M281.573 5036.36V5036.72H246.806C239.468 5036.72 233.198 5042.18 232.13 5049.52L227.855 5079.28H262.266C269.604 5079.28 275.873 5073.82 276.942 5066.48L281.288 5036.29L281.573 5036.36ZM281.573 5036.36V5036.72V5036.36ZM281.573 5036.36L281.929 5036.43L277.583 5066.63C276.443 5074.32 269.96 5080 262.194 5080H227L231.417 5049.44C232.557 5041.68 239.111 5036 246.806 5036H282L281.929 5036.43L281.573 5036.36Z" stroke="white" stroke-opacity="0.2"/>
<path d="M169.246 7139.63V7140.26H107.93C94.9883 7140.26 83.9313 7149.82 82.0466 7162.65L74.5078 7214.74H135.196C148.137 7214.74 159.194 7205.18 161.079 7192.35L168.744 7139.5L169.246 7139.63ZM169.246 7139.63V7140.26V7139.63ZM169.246 7139.63L169.874 7139.75L162.21 7192.6C160.199 7206.06 148.766 7216 135.07 7216H73L80.7902 7162.53C82.8005 7148.94 94.3601 7139 107.93 7139H170L169.874 7139.75L169.246 7139.63Z" stroke="white" stroke-opacity="0.5"/>
<path d="M240.573 7139.36V7139.72H205.806C198.468 7139.72 192.198 7145.18 191.13 7152.52L186.855 7182.28H221.266C228.604 7182.28 234.873 7176.82 235.942 7169.48L240.288 7139.29L240.573 7139.36ZM240.573 7139.36V7139.72V7139.36ZM240.573 7139.36L240.929 7139.43L236.583 7169.63C235.443 7177.32 228.96 7183 221.194 7183H186L190.417 7152.44C191.557 7144.68 198.111 7139 205.806 7139H241L240.929 7139.43L240.573 7139.36Z" stroke="white" stroke-opacity="0.2"/>
<path d="M210.246 8720.63V8721.26H148.93C135.988 8721.26 124.931 8730.82 123.047 8743.65L115.508 8795.74H176.196C189.137 8795.74 200.194 8786.18 202.079 8773.35L209.744 8720.5L210.246 8720.63ZM210.246 8720.63V8721.26V8720.63ZM210.246 8720.63L210.874 8720.75L203.21 8773.6C201.199 8787.06 189.766 8797 176.07 8797H114L121.79 8743.53C123.801 8729.94 135.36 8720 148.93 8720H211L210.874 8720.75L210.246 8720.63Z" stroke="white" stroke-opacity="0.5"/>
<path d="M281.573 8720.36V8720.72H246.806C239.468 8720.72 233.198 8726.18 232.13 8733.52L227.855 8763.28H262.266C269.604 8763.28 275.873 8757.82 276.942 8750.48L281.288 8720.29L281.573 8720.36ZM281.573 8720.36V8720.72V8720.36ZM281.573 8720.36L281.929 8720.43L277.583 8750.63C276.443 8758.32 269.96 8764 262.194 8764H227L231.417 8733.44C232.557 8725.68 239.111 8720 246.806 8720H282L281.929 8720.43L281.573 8720.36Z" stroke="white" stroke-opacity="0.2"/>
</svg>
