<svg width="1737" height="10528" viewBox="0 0 1737 10528" fill="none" xmlns="http://www.w3.org/2000/svg">
<path d="M1515.25 1941.63V1942.26H1453.93C1440.99 1942.26 1429.93 1951.82 1428.05 1964.65L1420.51 2016.74H1481.2C1494.14 2016.74 1505.19 2007.18 1507.08 1994.35L1514.74 1941.5L1515.25 1941.63ZM1515.25 1941.63V1942.26V1941.63ZM1515.25 1941.63L1515.87 1941.75L1508.21 1994.6C1506.2 2008.06 1494.77 2018 1481.07 2018H1419L1426.79 1964.53C1428.8 1950.94 1440.36 1941 1453.93 1941H1516L1515.87 1941.75L1515.25 1941.63Z" stroke="white" stroke-opacity="0.6"/>
<path d="M1586.57 1941.36V1941.72H1551.81C1544.47 1941.72 1538.2 1947.18 1537.13 1954.52L1532.85 1984.28H1567.27C1574.6 1984.28 1580.87 1978.82 1581.94 1971.48L1586.29 1941.29L1586.57 1941.36ZM1586.57 1941.36V1941.72V1941.36ZM1586.57 1941.36L1586.93 1941.43L1582.58 1971.63C1581.44 1979.32 1574.96 1985 1567.19 1985H1532L1536.42 1954.44C1537.56 1946.68 1544.11 1941 1551.81 1941H1587L1586.93 1941.43L1586.57 1941.36Z" stroke="white" stroke-opacity="0.3"/>
<path d="M1544.25 3960.63V3961.26H1482.93C1469.99 3961.26 1458.93 3970.82 1457.05 3983.65L1449.51 4035.74H1510.2C1523.14 4035.74 1534.19 4026.18 1536.08 4013.35L1543.74 3960.5L1544.25 3960.63ZM1544.25 3960.63V3961.26V3960.63ZM1544.25 3960.63L1544.87 3960.75L1537.21 4013.6C1535.2 4027.06 1523.77 4037 1510.07 4037H1448L1455.79 3983.53C1457.8 3969.94 1469.36 3960 1482.93 3960H1545L1544.87 3960.75L1544.25 3960.63Z" stroke="white" stroke-opacity="0.6"/>
<path d="M1615.57 3960.36V3960.72H1580.81C1573.47 3960.72 1567.2 3966.18 1566.13 3973.52L1561.85 4003.28H1596.27C1603.6 4003.28 1609.87 3997.82 1610.94 3990.48L1615.29 3960.29L1615.57 3960.36ZM1615.57 3960.36V3960.72V3960.36ZM1615.57 3960.36L1615.93 3960.43L1611.58 3990.63C1610.44 3998.32 1603.96 4004 1596.19 4004H1561L1565.42 3973.44C1566.56 3965.68 1573.11 3960 1580.81 3960H1616L1615.93 3960.43L1615.57 3960.36Z" stroke="white" stroke-opacity="0.3"/>
<path d="M1561.25 5835.63V5836.26H1499.93C1486.99 5836.26 1475.93 5845.82 1474.05 5858.65L1466.51 5910.74H1527.2C1540.14 5910.74 1551.19 5901.18 1553.08 5888.35L1560.74 5835.5L1561.25 5835.63ZM1561.25 5835.63V5836.26V5835.63ZM1561.25 5835.63L1561.87 5835.75L1554.21 5888.6C1552.2 5902.06 1540.77 5912 1527.07 5912H1465L1472.79 5858.53C1474.8 5844.94 1486.36 5835 1499.93 5835H1562L1561.87 5835.75L1561.25 5835.63Z" stroke="white" stroke-opacity="0.6"/>
<path d="M1632.57 5835.36V5835.72H1597.81C1590.47 5835.72 1584.2 5841.18 1583.13 5848.52L1578.85 5878.28H1613.27C1620.6 5878.28 1626.87 5872.82 1627.94 5865.48L1632.29 5835.29L1632.57 5835.36ZM1632.57 5835.36V5835.72V5835.36ZM1632.57 5835.36L1632.93 5835.43L1628.58 5865.63C1627.44 5873.32 1620.96 5879 1613.19 5879H1578L1582.42 5848.44C1583.56 5840.68 1590.11 5835 1597.81 5835H1633L1632.93 5835.43L1632.57 5835.36Z" stroke="white" stroke-opacity="0.3"/>
<path d="M1664.25 9611.63V9612.26H1602.93C1589.99 9612.26 1578.93 9621.82 1577.05 9634.65L1569.51 9686.74H1630.2C1643.14 9686.74 1654.19 9677.18 1656.08 9664.35L1663.74 9611.5L1664.25 9611.63ZM1664.25 9611.63V9612.26V9611.63ZM1664.25 9611.63L1664.87 9611.75L1657.21 9664.6C1655.2 9678.06 1643.77 9688 1630.07 9688H1568L1575.79 9634.53C1577.8 9620.94 1589.36 9611 1602.93 9611H1665L1664.87 9611.75L1664.25 9611.63Z" stroke="white" stroke-opacity="0.6"/>
<path d="M1735.57 9611.36V9611.72H1700.81C1693.47 9611.72 1687.2 9617.18 1686.13 9624.52L1681.85 9654.28H1716.27C1723.6 9654.28 1729.87 9648.82 1730.94 9641.48L1735.29 9611.29L1735.57 9611.36ZM1735.57 9611.36V9611.72V9611.36ZM1735.57 9611.36L1735.93 9611.43L1731.58 9641.63C1730.44 9649.32 1723.96 9655 1716.19 9655H1681L1685.42 9624.44C1686.56 9616.68 1693.11 9611 1700.81 9611H1736L1735.93 9611.43L1735.57 9611.36Z" stroke="white" stroke-opacity="0.3"/>
<path d="M126.246 2360.63V2361.26H64.9301C51.9883 2361.26 40.9313 2370.82 39.0466 2383.65L31.5078 2435.74H92.1956C105.137 2435.74 116.194 2426.18 118.079 2413.35L125.744 2360.5L126.246 2360.63ZM126.246 2360.63V2361.26V2360.63ZM126.246 2360.63L126.874 2360.75L119.21 2413.6C117.199 2427.06 105.766 2437 92.07 2437H30L37.7902 2383.53C39.8005 2369.94 51.3601 2360 64.9301 2360H127L126.874 2360.75L126.246 2360.63Z" stroke="white" stroke-opacity="0.5"/>
<path d="M197.573 2360.36V2360.72H162.806C155.468 2360.72 149.198 2366.18 148.13 2373.52L143.855 2403.28H178.266C185.604 2403.28 191.873 2397.82 192.942 2390.48L197.288 2360.29L197.573 2360.36ZM197.573 2360.36V2360.72V2360.36ZM197.573 2360.36L197.929 2360.43L193.583 2390.63C192.443 2398.32 185.96 2404 178.194 2404H143L147.417 2373.44C148.557 2365.68 155.111 2360 162.806 2360H198L197.929 2360.43L197.573 2360.36Z" stroke="white" stroke-opacity="0.2"/>
<path d="M182.246 4401.63V4402.26H120.93C107.988 4402.26 96.9313 4411.82 95.0466 4424.65L87.5078 4476.74H148.196C161.137 4476.74 172.194 4467.18 174.079 4454.35L181.744 4401.5L182.246 4401.63ZM182.246 4401.63V4402.26V4401.63ZM182.246 4401.63L182.874 4401.75L175.21 4454.6C173.199 4468.06 161.766 4478 148.07 4478H86L93.7902 4424.53C95.8005 4410.94 107.36 4401 120.93 4401H183L182.874 4401.75L182.246 4401.63Z" stroke="white" stroke-opacity="0.5"/>
<path d="M253.573 4401.36V4401.72H218.806C211.468 4401.72 205.198 4407.18 204.13 4414.52L199.855 4444.28H234.266C241.604 4444.28 247.873 4438.82 248.942 4431.48L253.288 4401.29L253.573 4401.36ZM253.573 4401.36V4401.72V4401.36ZM253.573 4401.36L253.929 4401.43L249.583 4431.63C248.443 4439.32 241.96 4445 234.194 4445H199L203.417 4414.44C204.557 4406.68 211.111 4401 218.806 4401H254L253.929 4401.43L253.573 4401.36Z" stroke="white" stroke-opacity="0.2"/>
<path d="M97.2461 6479.63V6480.26H35.9301C22.9883 6480.26 11.9313 6489.82 10.0466 6502.65L2.50777 6554.74H63.1956C76.1373 6554.74 87.1943 6545.18 89.079 6532.35L96.7435 6479.5L97.2461 6479.63ZM97.2461 6479.63V6480.26V6479.63ZM97.2461 6479.63L97.8744 6479.75L90.2098 6532.6C88.1995 6546.06 76.7656 6556 63.07 6556H1L8.79016 6502.53C10.8005 6488.94 22.3601 6479 35.9301 6479H98L97.8744 6479.75L97.2461 6479.63Z" stroke="white" stroke-opacity="0.5"/>
<path d="M168.573 6479.36V6479.72H133.806C126.468 6479.72 120.198 6485.18 119.13 6492.52L114.855 6522.28H149.266C156.604 6522.28 162.873 6516.82 163.942 6509.48L168.288 6479.29L168.573 6479.36ZM168.573 6479.36V6479.72V6479.36ZM168.573 6479.36L168.929 6479.43L164.583 6509.63C163.443 6517.32 156.96 6523 149.194 6523H114L118.417 6492.44C119.557 6484.68 126.111 6479 133.806 6479H169L168.929 6479.43L168.573 6479.36Z" stroke="white" stroke-opacity="0.2"/>
<path d="M97.2461 10055.6V10056.3H35.9301C22.9883 10056.3 11.9313 10065.8 10.0466 10078.7L2.50777 10130.7H63.1956C76.1373 10130.7 87.1943 10121.2 89.079 10108.3L96.7435 10055.5L97.2461 10055.6ZM97.2461 10055.6V10056.3V10055.6ZM97.2461 10055.6L97.8744 10055.8L90.2098 10108.6C88.1995 10122.1 76.7656 10132 63.07 10132H1L8.79016 10078.5C10.8005 10064.9 22.3601 10055 35.9301 10055H98L97.8744 10055.8L97.2461 10055.6Z" stroke="white" stroke-opacity="0.5"/>
<path d="M168.573 10055.4V10055.7H133.806C126.468 10055.7 120.198 10061.2 119.13 10068.5L114.855 10098.3H149.266C156.604 10098.3 162.873 10092.8 163.942 10085.5L168.288 10055.3L168.573 10055.4ZM168.573 10055.4V10055.7V10055.4ZM168.573 10055.4L168.929 10055.4L164.583 10085.6C163.443 10093.3 156.96 10099 149.194 10099H114L118.417 10068.4C119.557 10060.7 126.111 10055 133.806 10055H169L168.929 10055.4L168.573 10055.4Z" stroke="white" stroke-opacity="0.2"/>
<path d="M258.246 3282.63V3283.26H196.93C183.988 3283.26 172.931 3292.82 171.047 3305.65L163.508 3357.74H224.196C237.137 3357.74 248.194 3348.18 250.079 3335.35L257.744 3282.5L258.246 3282.63ZM258.246 3282.63V3283.26V3282.63ZM258.246 3282.63L258.874 3282.75L251.21 3335.6C249.199 3349.06 237.766 3359 224.07 3359H162L169.79 3305.53C171.801 3291.94 183.36 3282 196.93 3282H259L258.874 3282.75L258.246 3282.63Z" stroke="white" stroke-opacity="0.5"/>
<path d="M329.573 3282.36V3282.72H294.806C287.468 3282.72 281.198 3288.18 280.13 3295.52L275.855 3325.28H310.266C317.604 3325.28 323.873 3319.82 324.942 3312.48L329.288 3282.29L329.573 3282.36ZM329.573 3282.36V3282.72V3282.36ZM329.573 3282.36L329.929 3282.43L325.583 3312.63C324.443 3320.32 317.96 3326 310.194 3326H275L279.417 3295.44C280.557 3287.68 287.111 3282 294.806 3282H330L329.929 3282.43L329.573 3282.36Z" stroke="white" stroke-opacity="0.2"/>
<path d="M210.246 5503.63V5504.26H148.93C135.988 5504.26 124.931 5513.82 123.047 5526.65L115.508 5578.74H176.196C189.137 5578.74 200.194 5569.18 202.079 5556.35L209.744 5503.5L210.246 5503.63ZM210.246 5503.63V5504.26V5503.63ZM210.246 5503.63L210.874 5503.75L203.21 5556.6C201.199 5570.06 189.766 5580 176.07 5580H114L121.79 5526.53C123.801 5512.94 135.36 5503 148.93 5503H211L210.874 5503.75L210.246 5503.63Z" stroke="white" stroke-opacity="0.5"/>
<path d="M281.573 5503.36V5503.72H246.806C239.468 5503.72 233.198 5509.18 232.13 5516.52L227.855 5546.28H262.266C269.604 5546.28 275.873 5540.82 276.942 5533.48L281.288 5503.29L281.573 5503.36ZM281.573 5503.36V5503.72V5503.36ZM281.573 5503.36L281.929 5503.43L277.583 5533.63C276.443 5541.32 269.96 5547 262.194 5547H227L231.417 5516.44C232.557 5508.68 239.111 5503 246.806 5503H282L281.929 5503.43L281.573 5503.36Z" stroke="white" stroke-opacity="0.2"/>
<path d="M223.246 7581.63V7582.26H161.93C148.988 7582.26 137.931 7591.82 136.047 7604.65L128.508 7656.74H189.196C202.137 7656.74 213.194 7647.18 215.079 7634.35L222.744 7581.5L223.246 7581.63ZM223.246 7581.63V7582.26V7581.63ZM223.246 7581.63L223.874 7581.75L216.21 7634.6C214.199 7648.06 202.766 7658 189.07 7658H127L134.79 7604.53C136.801 7590.94 148.36 7581 161.93 7581H224L223.874 7581.75L223.246 7581.63Z" stroke="white" stroke-opacity="0.5"/>
<path d="M294.573 7581.36V7581.72H259.806C252.468 7581.72 246.198 7587.18 245.13 7594.52L240.855 7624.28H275.266C282.604 7624.28 288.873 7618.82 289.942 7611.48L294.288 7581.29L294.573 7581.36ZM294.573 7581.36V7581.72V7581.36ZM294.573 7581.36L294.929 7581.43L290.583 7611.63C289.443 7619.32 282.96 7625 275.194 7625H240L244.417 7594.44C245.557 7586.68 252.111 7581 259.806 7581H295L294.929 7581.43L294.573 7581.36Z" stroke="white" stroke-opacity="0.2"/>
<path d="M210.246 9187.63V9188.26H148.93C135.988 9188.26 124.931 9197.82 123.047 9210.65L115.508 9262.74H176.196C189.137 9262.74 200.194 9253.18 202.079 9240.35L209.744 9187.5L210.246 9187.63ZM210.246 9187.63V9188.26V9187.63ZM210.246 9187.63L210.874 9187.75L203.21 9240.6C201.199 9254.06 189.766 9264 176.07 9264H114L121.79 9210.53C123.801 9196.94 135.36 9187 148.93 9187H211L210.874 9187.75L210.246 9187.63Z" stroke="white" stroke-opacity="0.5"/>
<path d="M281.573 9187.36V9187.72H246.806C239.468 9187.72 233.198 9193.18 232.13 9200.52L227.855 9230.28H262.266C269.604 9230.28 275.873 9224.82 276.942 9217.48L281.288 9187.29L281.573 9187.36ZM281.573 9187.36V9187.72V9187.36ZM281.573 9187.36L281.929 9187.43L277.583 9217.63C276.443 9225.32 269.96 9231 262.194 9231H227L231.417 9200.44C232.557 9192.68 239.111 9187 246.806 9187H282L281.929 9187.43L281.573 9187.36Z" stroke="white" stroke-opacity="0.2"/>
<path d="M1457.25 1.62908V2.25817H1395.93C1382.99 2.25817 1371.93 11.8203 1370.05 24.6536L1362.51 76.7418H1423.2C1436.14 76.7418 1447.19 67.1797 1449.08 54.3464L1456.74 1.50327L1457.25 1.62908ZM1457.25 1.62908V2.25817V1.62908ZM1457.25 1.62908L1457.87 1.7549L1450.21 54.598C1448.2 68.0605 1436.77 78 1423.07 78H1361L1368.79 24.5278C1370.8 10.9395 1382.36 1 1395.93 1H1458L1457.87 1.7549L1457.25 1.62908Z" stroke="white" stroke-opacity="0.6"/>
<path d="M1528.57 1.35948V1.71895H1493.81C1486.47 1.71895 1480.2 7.18301 1479.13 14.5163L1474.85 44.281H1509.27C1516.6 44.281 1522.87 38.817 1523.94 31.4837L1528.29 1.28758L1528.57 1.35948ZM1528.57 1.35948V1.71895V1.35948ZM1528.57 1.35948L1528.93 1.43137L1524.58 31.6275C1523.44 39.3203 1516.96 45 1509.19 45H1474L1478.42 14.4444C1479.56 6.67974 1486.11 1 1493.81 1H1529L1528.93 1.43137L1528.57 1.35948Z" stroke="white" stroke-opacity="0.3"/>
<path d="M97.2461 468.629V469.258H35.9301C22.9883 469.258 11.9313 478.82 10.0466 491.654L2.50777 543.742H63.1956C76.1373 543.742 87.1943 534.18 89.079 521.346L96.7435 468.503L97.2461 468.629ZM97.2461 468.629V469.258V468.629ZM97.2461 468.629L97.8744 468.755L90.2098 521.598C88.1995 535.06 76.7656 545 63.07 545H1L8.79016 491.528C10.8005 477.94 22.3601 468 35.9301 468H98L97.8744 468.755L97.2461 468.629Z" stroke="white" stroke-opacity="0.5"/>
<path d="M168.573 468.359V468.719H133.806C126.468 468.719 120.198 474.183 119.13 481.516L114.855 511.281H149.266C156.604 511.281 162.873 505.817 163.942 498.484L168.288 468.288L168.573 468.359ZM168.573 468.359V468.719V468.359ZM168.573 468.359L168.929 468.431L164.583 498.627C163.443 506.32 156.96 512 149.194 512H114L118.417 481.444C119.557 473.68 126.111 468 133.806 468H169L168.929 468.431L168.573 468.359Z" stroke="white" stroke-opacity="0.2"/>
<path d="M258.246 1577.63V1578.26H196.93C183.988 1578.26 172.931 1587.82 171.047 1600.65L163.508 1652.74H224.196C237.137 1652.74 248.194 1643.18 250.079 1630.35L257.744 1577.5L258.246 1577.63ZM258.246 1577.63V1578.26V1577.63ZM258.246 1577.63L258.874 1577.75L251.21 1630.6C249.199 1644.06 237.766 1654 224.07 1654H162L169.79 1600.53C171.801 1586.94 183.36 1577 196.93 1577H259L258.874 1577.75L258.246 1577.63Z" stroke="white" stroke-opacity="0.5"/>
<path d="M329.573 1577.36V1577.72H294.806C287.468 1577.72 281.198 1583.18 280.13 1590.52L275.855 1620.28H310.266C317.604 1620.28 323.873 1614.82 324.942 1607.48L329.288 1577.29L329.573 1577.36ZM329.573 1577.36V1577.72V1577.36ZM329.573 1577.36L329.929 1577.43L325.583 1607.63C324.443 1615.32 317.96 1621 310.194 1621H275L279.417 1590.44C280.557 1582.68 287.111 1577 294.806 1577H330L329.929 1577.43L329.573 1577.36Z" stroke="white" stroke-opacity="0.2"/>
<path d="M1580.25 990.629V991.258H1518.93C1505.99 991.258 1494.93 1000.82 1493.05 1013.65L1485.51 1065.74H1546.2C1559.14 1065.74 1570.19 1056.18 1572.08 1043.35L1579.74 990.503L1580.25 990.629ZM1580.25 990.629V991.258V990.629ZM1580.25 990.629L1580.87 990.755L1573.21 1043.6C1571.2 1057.06 1559.77 1067 1546.07 1067H1484L1491.79 1013.53C1493.8 999.94 1505.36 990 1518.93 990H1581L1580.87 990.755L1580.25 990.629Z" stroke="white" stroke-opacity="0.6"/>
<path d="M1651.57 990.359V990.719H1616.81C1609.47 990.719 1603.2 996.183 1602.13 1003.52L1597.85 1033.28H1632.27C1639.6 1033.28 1645.87 1027.82 1646.94 1020.48L1651.29 990.288L1651.57 990.359ZM1651.57 990.359V990.719V990.359ZM1651.57 990.359L1651.93 990.431L1647.58 1020.63C1646.44 1028.32 1639.96 1034 1632.19 1034H1597L1601.42 1003.44C1602.56 995.68 1609.11 990 1616.81 990H1652L1651.93 990.431L1651.57 990.359Z" stroke="white" stroke-opacity="0.3"/>
<path d="M1628.25 2764.63V2765.26H1566.93C1553.99 2765.26 1542.93 2774.82 1541.05 2787.65L1533.51 2839.74H1594.2C1607.14 2839.74 1618.19 2830.18 1620.08 2817.35L1627.74 2764.5L1628.25 2764.63ZM1628.25 2764.63V2765.26V2764.63ZM1628.25 2764.63L1628.87 2764.75L1621.21 2817.6C1619.2 2831.06 1607.77 2841 1594.07 2841H1532L1539.79 2787.53C1541.8 2773.94 1553.36 2764 1566.93 2764H1629L1628.87 2764.75L1628.25 2764.63Z" stroke="white" stroke-opacity="0.6"/>
<path d="M1699.57 2764.36V2764.72H1664.81C1657.47 2764.72 1651.2 2770.18 1650.13 2777.52L1645.85 2807.28H1680.27C1687.6 2807.28 1693.87 2801.82 1694.94 2794.48L1699.29 2764.29L1699.57 2764.36ZM1699.57 2764.36V2764.72V2764.36ZM1699.57 2764.36L1699.93 2764.43L1695.58 2794.63C1694.44 2802.32 1687.96 2808 1680.19 2808H1645L1649.42 2777.44C1650.56 2769.68 1657.11 2764 1664.81 2764H1700L1699.93 2764.43L1699.57 2764.36Z" stroke="white" stroke-opacity="0.3"/>
<path d="M1657.25 4761.63V4762.26H1595.93C1582.99 4762.26 1571.93 4771.82 1570.05 4784.65L1562.51 4836.74H1623.2C1636.14 4836.74 1647.19 4827.18 1649.08 4814.35L1656.74 4761.5L1657.25 4761.63ZM1657.25 4761.63V4762.26V4761.63ZM1657.25 4761.63L1657.87 4761.75L1650.21 4814.6C1648.2 4828.06 1636.77 4838 1623.07 4838H1561L1568.79 4784.53C1570.8 4770.94 1582.36 4761 1595.93 4761H1658L1657.87 4761.75L1657.25 4761.63Z" stroke="white" stroke-opacity="0.6"/>
<path d="M1728.57 4761.36V4761.72H1693.81C1686.47 4761.72 1680.2 4767.18 1679.13 4774.52L1674.85 4804.28H1709.27C1716.6 4804.28 1722.87 4798.82 1723.94 4791.48L1728.29 4761.29L1728.57 4761.36ZM1728.57 4761.36V4761.72V4761.36ZM1728.57 4761.36L1728.93 4761.43L1724.58 4791.63C1723.44 4799.32 1716.96 4805 1709.19 4805H1674L1678.42 4774.44C1679.56 4766.68 1686.11 4761 1693.81 4761H1729L1728.93 4761.43L1728.57 4761.36Z" stroke="white" stroke-opacity="0.3"/>
<path d="M1566.25 6878.63V6879.26H1504.93C1491.99 6879.26 1480.93 6888.82 1479.05 6901.65L1471.51 6953.74H1532.2C1545.14 6953.74 1556.19 6944.18 1558.08 6931.35L1565.74 6878.5L1566.25 6878.63ZM1566.25 6878.63V6879.26V6878.63ZM1566.25 6878.63L1566.87 6878.75L1559.21 6931.6C1557.2 6945.06 1545.77 6955 1532.07 6955H1470L1477.79 6901.53C1479.8 6887.94 1491.36 6878 1504.93 6878H1567L1566.87 6878.75L1566.25 6878.63Z" stroke="white" stroke-opacity="0.6"/>
<path d="M1637.57 6878.36V6878.72H1602.81C1595.47 6878.72 1589.2 6884.18 1588.13 6891.52L1583.85 6921.28H1618.27C1625.6 6921.28 1631.87 6915.82 1632.94 6908.48L1637.29 6878.29L1637.57 6878.36ZM1637.57 6878.36V6878.72V6878.36ZM1637.57 6878.36L1637.93 6878.43L1633.58 6908.63C1632.44 6916.32 1625.96 6922 1618.19 6922H1583L1587.42 6891.44C1588.56 6883.68 1595.11 6878 1602.81 6878H1638L1637.93 6878.43L1637.57 6878.36Z" stroke="white" stroke-opacity="0.3"/>
<path d="M1496.25 8223.63V8224.26H1434.93C1421.99 8224.26 1410.93 8233.82 1409.05 8246.65L1401.51 8298.74H1462.2C1475.14 8298.74 1486.19 8289.18 1488.08 8276.35L1495.74 8223.5L1496.25 8223.63ZM1496.25 8223.63V8224.26V8223.63ZM1496.25 8223.63L1496.87 8223.75L1489.21 8276.6C1487.2 8290.06 1475.77 8300 1462.07 8300H1400L1407.79 8246.53C1409.8 8232.94 1421.36 8223 1434.93 8223H1497L1496.87 8223.75L1496.25 8223.63Z" stroke="white" stroke-opacity="0.6"/>
<path d="M1567.57 8223.36V8223.72H1532.81C1525.47 8223.72 1519.2 8229.18 1518.13 8236.52L1513.85 8266.28H1548.27C1555.6 8266.28 1561.87 8260.82 1562.94 8253.48L1567.29 8223.29L1567.57 8223.36ZM1567.57 8223.36V8223.72V8223.36ZM1567.57 8223.36L1567.93 8223.43L1563.58 8253.63C1562.44 8261.32 1555.96 8267 1548.19 8267H1513L1517.42 8236.44C1518.56 8228.68 1525.11 8223 1532.81 8223H1568L1567.93 8223.43L1567.57 8223.36Z" stroke="white" stroke-opacity="0.3"/>
<path d="M1650.25 10451.1V10451.8H1588.93C1575.99 10451.8 1564.93 10461.3 1563.05 10474.2L1555.51 10526.2H1616.2C1629.14 10526.2 1640.19 10516.7 1642.08 10503.8L1649.74 10451L1650.25 10451.1ZM1650.25 10451.1V10451.8V10451.1ZM1650.25 10451.1L1650.87 10451.3L1643.21 10504.1C1641.2 10517.6 1629.77 10527.5 1616.07 10527.5H1554L1561.79 10474C1563.8 10460.4 1575.36 10450.5 1588.93 10450.5H1651L1650.87 10451.3L1650.25 10451.1Z" stroke="white" stroke-opacity="0.6"/>
<path d="M1721.57 10450.9V10451.2H1686.81C1679.47 10451.2 1673.2 10456.7 1672.13 10464L1667.85 10493.8H1702.27C1709.6 10493.8 1715.87 10488.3 1716.94 10481L1721.29 10450.8L1721.57 10450.9ZM1721.57 10450.9V10451.2V10450.9ZM1721.57 10450.9L1721.93 10450.9L1717.58 10481.1C1716.44 10488.8 1709.96 10494.5 1702.19 10494.5H1667L1671.42 10463.9C1672.56 10456.2 1679.11 10450.5 1686.81 10450.5H1722L1721.93 10450.9L1721.57 10450.9Z" stroke="white" stroke-opacity="0.3"/>
</svg>
